<svg xmlns="http://www.w3.org/2000/svg" xmlns:xlink="http://www.w3.org/1999/xlink" width="400" zoomAndPan="magnify" viewBox="0 0 300 299.999988" height="400" preserveAspectRatio="xMidYMid meet" version="1.0"><defs><g/><clipPath id="3c43f8729a"><path d="M 46.5 17.355469 L 253.5 17.355469 L 253.5 224.355469 L 46.5 224.355469 Z M 46.5 17.355469 " clip-rule="nonzero"/></clipPath></defs><rect x="-30" width="360" fill="#ffffff" y="-29.999999" height="359.999986" fill-opacity="1"/><rect x="-30" width="360" fill="#d84040" y="-29.999999" height="359.999986" fill-opacity="1"/><g clip-path="url(#3c43f8729a)"><path fill="#000000" d="M 150 17.332031 C 92.828125 17.332031 46.472656 63.683594 46.472656 120.855469 C 46.472656 178.03125 92.828125 224.382812 150 224.382812 C 207.171875 224.382812 253.527344 178.03125 253.527344 120.855469 C 253.527344 63.683594 207.171875 17.332031 150 17.332031 Z M 179.042969 161.476562 C 175.992188 161.476562 173.488281 159 173.488281 155.921875 C 173.488281 152.871094 175.964844 150.367188 179.042969 150.367188 C 188.84375 150.367188 196.847656 142.390625 196.847656 132.5625 C 196.847656 122.761719 188.871094 114.757812 179.042969 114.757812 L 110.816406 114.757812 L 124.582031 128.808594 C 126.71875 131 126.691406 134.519531 124.503906 136.65625 C 123.433594 137.726562 122.027344 138.246094 120.617188 138.246094 C 119.183594 138.246094 117.75 137.699219 116.65625 136.578125 L 93.660156 113.089844 C 93.558594 112.984375 93.480469 112.878906 93.402344 112.773438 C 93.269531 112.617188 93.113281 112.460938 93.011719 112.28125 C 92.90625 112.125 92.828125 111.941406 92.722656 111.757812 C 92.644531 111.628906 92.566406 111.496094 92.515625 111.339844 C 92.410156 111.082031 92.332031 110.820312 92.28125 110.53125 C 92.253906 110.453125 92.226562 110.375 92.203125 110.296875 C 92.125 109.933594 92.097656 109.59375 92.097656 109.230469 C 92.097656 109.230469 92.097656 109.203125 92.097656 109.203125 C 92.097656 109.097656 92.125 109.019531 92.125 108.917969 C 92.125 108.65625 92.148438 108.421875 92.203125 108.160156 C 92.226562 108.003906 92.28125 107.875 92.332031 107.71875 C 92.382812 107.535156 92.4375 107.328125 92.515625 107.144531 C 92.566406 106.988281 92.671875 106.832031 92.75 106.699219 C 92.828125 106.542969 92.90625 106.363281 93.011719 106.207031 C 93.113281 106.050781 93.21875 105.917969 93.347656 105.761719 C 93.425781 105.65625 93.503906 105.527344 93.609375 105.421875 L 115.429688 81.933594 C 117.515625 79.691406 121.035156 79.5625 123.277344 81.648438 C 125.519531 83.734375 125.648438 87.253906 123.566406 89.496094 L 110.398438 103.652344 L 179.121094 103.652344 C 195.050781 103.652344 208.007812 116.609375 208.007812 132.535156 C 207.929688 148.519531 194.972656 161.476562 179.042969 161.476562 Z M 179.042969 161.476562 " fill-opacity="1" fill-rule="evenodd"/></g><g fill="#000000" fill-opacity="1"><g transform="translate(40.33594, 264.892714)"><g><path d="M 3.625 -42.34375 L 12.09375 -42.34375 C 15.757812 -42.34375 18.488281 -41.425781 20.28125 -39.59375 C 22.082031 -37.757812 22.984375 -34.9375 22.984375 -31.125 L 22.984375 -29.640625 C 22.984375 -27.515625 22.695312 -25.828125 22.125 -24.578125 C 21.5625 -23.335938 20.929688 -22.40625 20.234375 -21.78125 C 19.429688 -21.050781 18.535156 -20.554688 17.546875 -20.296875 L 17.546875 -19.96875 C 18.390625 -19.75 19.140625 -19.378906 19.796875 -18.859375 C 20.390625 -18.421875 20.921875 -17.804688 21.390625 -17.015625 C 21.867188 -16.234375 22.109375 -15.203125 22.109375 -13.921875 L 22.109375 -4.84375 C 22.109375 -4 22.234375 -3.335938 22.484375 -2.859375 C 22.742188 -2.378906 23.019531 -2.015625 23.3125 -1.765625 C 23.6875 -1.460938 24.09375 -1.273438 24.53125 -1.203125 L 24.53125 0 L 20.90625 0 C 19.84375 0 18.960938 -0.390625 18.265625 -1.171875 C 17.566406 -1.960938 17.21875 -3.1875 17.21875 -4.84375 L 17.21875 -13.921875 C 17.21875 -15.273438 16.820312 -16.316406 16.03125 -17.046875 C 15.238281 -17.785156 13.925781 -18.15625 12.09375 -18.15625 L 8.46875 -18.15625 L 8.46875 0 L 3.625 0 Z M 12.09375 -22.390625 C 14.226562 -22.390625 15.769531 -22.921875 16.71875 -23.984375 C 17.675781 -25.046875 18.15625 -26.929688 18.15625 -29.640625 L 18.15625 -31.125 C 18.15625 -33.726562 17.675781 -35.539062 16.71875 -36.5625 C 15.769531 -37.59375 14.226562 -38.109375 12.09375 -38.109375 L 8.46875 -38.109375 L 8.46875 -22.390625 Z M 12.09375 -22.390625 "/></g></g></g><g fill="#000000" fill-opacity="1"><g transform="translate(66.349057, 264.892714)"><g><path d="M 3.625 -42.34375 L 20.5625 -42.34375 L 20.5625 -38.109375 L 8.46875 -38.109375 L 8.46875 -24.203125 L 16.9375 -24.203125 L 16.9375 -19.96875 L 8.46875 -19.96875 L 8.46875 -4.234375 L 21.171875 -4.234375 L 21.171875 0 L 3.625 0 Z M 3.625 -42.34375 "/></g></g></g><g fill="#000000" fill-opacity="1"><g transform="translate(88.732428, 264.892714)"><g><path d="M 1.203125 -42.34375 L 6.046875 -42.34375 L 11.21875 -12.09375 L 12.09375 -4.84375 L 12.4375 -4.84375 L 13.3125 -12.09375 L 18.421875 -42.34375 L 23.3125 -42.34375 L 15.40625 0 L 9.078125 0 Z M 1.203125 -42.34375 "/></g></g></g><g fill="#000000" fill-opacity="1"><g transform="translate(113.260651, 264.892714)"><g><path d="M 3.625 -42.34375 L 20.5625 -42.34375 L 20.5625 -38.109375 L 8.46875 -38.109375 L 8.46875 -24.203125 L 16.9375 -24.203125 L 16.9375 -19.96875 L 8.46875 -19.96875 L 8.46875 -4.234375 L 21.171875 -4.234375 L 21.171875 0 L 3.625 0 Z M 3.625 -42.34375 "/></g></g></g><g fill="#000000" fill-opacity="1"><g transform="translate(135.644023, 264.892714)"><g><path d="M 3.625 -42.34375 L 12.09375 -42.34375 C 15.757812 -42.34375 18.488281 -41.425781 20.28125 -39.59375 C 22.082031 -37.757812 22.984375 -34.9375 22.984375 -31.125 L 22.984375 -29.640625 C 22.984375 -27.515625 22.695312 -25.828125 22.125 -24.578125 C 21.5625 -23.335938 20.929688 -22.40625 20.234375 -21.78125 C 19.429688 -21.050781 18.535156 -20.554688 17.546875 -20.296875 L 17.546875 -19.96875 C 18.390625 -19.75 19.140625 -19.378906 19.796875 -18.859375 C 20.390625 -18.421875 20.921875 -17.804688 21.390625 -17.015625 C 21.867188 -16.234375 22.109375 -15.203125 22.109375 -13.921875 L 22.109375 -4.84375 C 22.109375 -4 22.234375 -3.335938 22.484375 -2.859375 C 22.742188 -2.378906 23.019531 -2.015625 23.3125 -1.765625 C 23.6875 -1.460938 24.09375 -1.273438 24.53125 -1.203125 L 24.53125 0 L 20.90625 0 C 19.84375 0 18.960938 -0.390625 18.265625 -1.171875 C 17.566406 -1.960938 17.21875 -3.1875 17.21875 -4.84375 L 17.21875 -13.921875 C 17.21875 -15.273438 16.820312 -16.316406 16.03125 -17.046875 C 15.238281 -17.785156 13.925781 -18.15625 12.09375 -18.15625 L 8.46875 -18.15625 L 8.46875 0 L 3.625 0 Z M 12.09375 -22.390625 C 14.226562 -22.390625 15.769531 -22.921875 16.71875 -23.984375 C 17.675781 -25.046875 18.15625 -26.929688 18.15625 -29.640625 L 18.15625 -31.125 C 18.15625 -33.726562 17.675781 -35.539062 16.71875 -36.5625 C 15.769531 -37.59375 14.226562 -38.109375 12.09375 -38.109375 L 8.46875 -38.109375 L 8.46875 -22.390625 Z M 12.09375 -22.390625 "/></g></g></g><g fill="#000000" fill-opacity="1"><g transform="translate(161.657139, 264.892714)"><g><path d="M 12.09375 0.609375 C 10.664062 0.609375 9.375 0.390625 8.21875 -0.046875 C 7.0625 -0.492188 6.078125 -1.109375 5.265625 -1.890625 C 4.460938 -2.679688 3.84375 -3.632812 3.40625 -4.75 C 2.96875 -5.875 2.75 -7.113281 2.75 -8.46875 C 2.75 -9.195312 2.757812 -9.921875 2.78125 -10.640625 C 2.800781 -11.359375 2.828125 -11.972656 2.859375 -12.484375 C 2.898438 -13.109375 2.957031 -13.675781 3.03125 -14.1875 L 7.53125 -14.1875 C 7.457031 -13.675781 7.40625 -13.144531 7.375 -12.59375 C 7.332031 -12.113281 7.300781 -11.582031 7.28125 -11 C 7.269531 -10.414062 7.265625 -9.863281 7.265625 -9.34375 C 7.265625 -7.363281 7.6875 -5.914062 8.53125 -5 C 9.375 -4.082031 10.5625 -3.625 12.09375 -3.625 C 13.632812 -3.625 14.828125 -4.082031 15.671875 -5 C 16.515625 -5.914062 16.9375 -7.363281 16.9375 -9.34375 L 16.9375 -10.890625 C 16.9375 -12.140625 16.578125 -13.300781 15.859375 -14.375 C 15.148438 -15.457031 14.253906 -16.503906 13.171875 -17.515625 C 12.085938 -18.523438 10.921875 -19.550781 9.671875 -20.59375 C 8.429688 -21.644531 7.269531 -22.753906 6.1875 -23.921875 C 5.101562 -25.097656 4.203125 -26.363281 3.484375 -27.71875 C 2.773438 -29.070312 2.421875 -30.613281 2.421875 -32.34375 L 2.421875 -32.9375 C 2.421875 -36.164062 3.269531 -38.640625 4.96875 -40.359375 C 6.675781 -42.085938 9.050781 -42.953125 12.09375 -42.953125 C 14.84375 -42.953125 17.039062 -42.125 18.6875 -40.46875 C 20.34375 -38.820312 21.171875 -36.625 21.171875 -33.875 C 21.171875 -33.101562 21.148438 -32.367188 21.109375 -31.671875 C 21.078125 -30.984375 21.046875 -30.378906 21.015625 -29.859375 C 20.972656 -29.242188 20.9375 -28.675781 20.90625 -28.15625 L 16.328125 -28.15625 C 16.367188 -28.675781 16.40625 -29.207031 16.4375 -29.75 C 16.476562 -30.226562 16.515625 -30.75 16.546875 -31.3125 C 16.585938 -31.882812 16.609375 -32.425781 16.609375 -32.9375 C 16.609375 -34.925781 16.195312 -36.382812 15.375 -37.3125 C 14.550781 -38.25 13.457031 -38.71875 12.09375 -38.71875 C 10.5625 -38.71875 9.375 -38.25 8.53125 -37.3125 C 7.6875 -36.382812 7.265625 -34.925781 7.265625 -32.9375 L 7.265625 -32.34375 C 7.265625 -31.132812 7.617188 -30.015625 8.328125 -28.984375 C 9.046875 -27.953125 9.945312 -26.929688 11.03125 -25.921875 C 12.113281 -24.921875 13.273438 -23.90625 14.515625 -22.875 C 15.765625 -21.851562 16.929688 -20.742188 18.015625 -19.546875 C 19.097656 -18.359375 19.992188 -17.054688 20.703125 -15.640625 C 21.421875 -14.234375 21.78125 -12.648438 21.78125 -10.890625 L 21.78125 -9.453125 C 21.78125 -6.234375 20.925781 -3.75 19.21875 -2 C 17.519531 -0.257812 15.144531 0.609375 12.09375 0.609375 Z M 12.09375 0.609375 "/></g></g></g><g fill="#000000" fill-opacity="1"><g transform="translate(185.855383, 264.892714)"><g><path d="M 3.625 -42.34375 L 20.5625 -42.34375 L 20.5625 -38.109375 L 8.46875 -38.109375 L 8.46875 -24.203125 L 16.9375 -24.203125 L 16.9375 -19.96875 L 8.46875 -19.96875 L 8.46875 -4.234375 L 21.171875 -4.234375 L 21.171875 0 L 3.625 0 Z M 3.625 -42.34375 "/></g></g></g><g fill="#000000" fill-opacity="1"><g transform="translate(208.238755, 264.892714)"><g><path d="M 2.421875 -19.359375 L 16.328125 -19.359375 L 16.328125 -15.125 L 2.421875 -15.125 Z M 2.421875 -19.359375 "/></g></g></g><g fill="#000000" fill-opacity="1"><g transform="translate(226.992392, 264.892714)"><g><path d="M 3.625 -42.34375 L 8.46875 -42.34375 L 8.46875 0 L 3.625 0 Z M 3.625 -42.34375 "/></g></g></g><g fill="#000000" fill-opacity="1"><g transform="translate(239.091509, 264.892714)"><g><path d="M 7.859375 -38.109375 L 0.609375 -38.109375 L 0.609375 -42.34375 L 19.96875 -42.34375 L 19.96875 -38.109375 L 12.703125 -38.109375 L 12.703125 0 L 7.859375 0 Z M 7.859375 -38.109375 "/></g></g></g></svg>